<?xml version="1.0" encoding="utf-8"?>
<!-- Generator: Adobe Illustrator 24.3.0, SVG Export Plug-In . SVG Version: 6.00 Build 0)  -->
<svg version="1.1" id="레이어_1" xmlns="http://www.w3.org/2000/svg" xmlns:xlink="http://www.w3.org/1999/xlink" x="0px"
	 y="0px" viewBox="0 0 73 73" style="enable-background:new 0 0 73 73;" xml:space="preserve">
<style type="text/css">
	.st0{fill:#FFFFFF;stroke:#663399;stroke-width:2;stroke-miterlimit:10;}
	.st1{display:none;fill:#3C5AFD;}
	.st2{display:none;}
	.st3{display:inline;}
	.st4{fill:#663399;}
</style>
<desc>Created with Sketch.</desc>
<path id="Mask" class="st0" d="M15,1h43c7.7,0,14,6.3,14,14v43c0,7.7-6.3,14-14,14H15C7.3,72,1,65.7,1,58V15C1,7.3,7.3,1,15,1z"/>
<path class="st1" d="M53.5,19.5c1.9,1.9,2.8,4.2,2.9,7v19.9c-0.1,2.8-1,5.2-2.9,7c-1.9,1.9-4.2,2.8-7,2.9H26.5c-2.8-0.1-5.2-1-7-2.9
	c-1.9-1.9-2.8-4.2-2.9-7V26.5c0.1-2.8,1-5.2,2.9-7c1.9-1.9,4.2-2.8,7-2.9h19.9C49.3,16.6,51.6,17.6,53.5,19.5L53.5,19.5z M50.8,35.5
	c-0.6-0.6-1-1.4-1-2.3v-6.6c0-0.9-0.3-1.7-1-2.4c-0.6-0.6-1.4-0.9-2.4-1h-3.3v16.6L29.9,23.2h-3.3c-0.9,0-1.7,0.3-2.4,1
	c-0.6,0.6-0.9,1.4-1,2.4v6.6c0,0.9-0.4,1.7-1,2.3c-0.6,0.6-1.4,0.9-2.4,1c0.9,0,1.7,0.4,2.4,1c0.6,0.6,1,1.4,1,2.3v6.6
	c0,0.9,0.3,1.7,1,2.4c0.6,0.6,1.4,0.9,2.4,1h3.3V33.2l13.3,16.6h3.3c0.9,0,1.7-0.3,2.4-1c0.6-0.6,0.9-1.4,1-2.4v-6.6
	c0-0.9,0.4-1.7,1-2.3c0.6-0.6,1.4-0.9,2.4-1C52.2,36.5,51.4,36.1,50.8,35.5L50.8,35.5z"/>
<g id="Page-1" class="st2">
	<g id="Black-Next.js" transform="translate(-247.000000, -138.000000)" class="st3">
		<g id="next-black" transform="translate(247.000000, 138.000000)">
			<g id="EXT-_x2B_-Type-something">
				<path id="EXT" d="M25,30.3h8.7v0.6h-7.9v4.9h7.4v0.6h-7.4v5.4h8v0.6H25V30.3z M34.5,30.3h0.9l4.1,5.4l4.2-5.4l5.7-6.8l-9.4,12.7
					l4.8,6.3h-1l-4.4-5.7l-4.4,5.7h-0.9l4.9-6.3L34.5,30.3z M45.2,30.9v-0.6h9.9v0.6h-4.6v11.5h-0.8V30.9H45.2z"/>
				<polygon id="Type-something" points="14.2,30.3 15.1,30.3 28.9,49.5 23.2,42.4 15,31.2 14.9,42.4 14.2,42.4 				"/>
			</g>
			<path id="_x2E_JS" d="M55.1,41.6c0.2,0,0.3-0.1,0.3-0.3c0-0.2-0.1-0.3-0.3-0.3c-0.2,0-0.3,0.1-0.3,0.3
				C54.8,41.5,54.9,41.6,55.1,41.6z M55.8,40.9c0,0.5,0.3,0.7,0.9,0.7c0.5,0,0.9-0.3,0.9-0.8v-1.9h-0.4v1.9c0,0.3-0.2,0.4-0.4,0.4
				c-0.2,0-0.4-0.1-0.4-0.4H55.8z M58.1,40.9c0,0.5,0.4,0.8,1.1,0.8c0.7,0,1.1-0.3,1.1-0.8c0-0.4-0.2-0.6-0.8-0.7L59.2,40
				c-0.4-0.1-0.5-0.2-0.5-0.4c0-0.2,0.2-0.4,0.6-0.4c0.3,0,0.6,0.2,0.6,0.4h0.4c0-0.4-0.4-0.8-1-0.8c-0.6,0-1,0.3-1,0.8
				c0,0.4,0.2,0.6,0.7,0.7l0.4,0.1c0.4,0.1,0.5,0.2,0.5,0.4c0,0.2-0.3,0.4-0.6,0.4c-0.4,0-0.6-0.2-0.7-0.4H58.1z"/>
		</g>
	</g>
</g>
<path class="st4" d="M36.5,19c-9,0-16.4,7.4-16.4,16.4s7.4,16.4,16.4,16.4s16.4-7.4,16.4-16.4S45.5,19,36.5,19z M27.4,44.6
	c-2.5-2.5-3.8-5.7-3.8-8.9l12.8,12.7C33.1,48.2,29.8,47,27.4,44.6z M39.3,48L24,32.6c1.3-5.7,6.4-10.1,12.5-10.1
	c4.3,0,8.1,2.1,10.4,5.3l-1.8,1.5c-2-2.7-5.2-4.5-8.7-4.5c-4.6,0-8.4,2.9-10,7L40,45.4c3.4-1.2,6-4.1,6.8-7.6h-5.6v-2.3h8.2
	C49.4,41.5,45.1,46.7,39.3,48z"/>
</svg>
