<?xml version="1.0" encoding="utf-8"?>
<!-- Generator: Adobe Illustrator 24.3.0, SVG Export Plug-In . SVG Version: 6.00 Build 0)  -->
<svg version="1.1" id="레이어_1" xmlns="http://www.w3.org/2000/svg" xmlns:xlink="http://www.w3.org/1999/xlink" x="0px"
	 y="0px" viewBox="0 0 73 73" style="enable-background:new 0 0 73 73;" xml:space="preserve">
<style type="text/css">
	.st0{fill:#FFFFFF;stroke:#F26B00;stroke-width:2;stroke-miterlimit:10;}
	.st1{display:none;fill:#3C5AFD;}
	.st2{fill:none;stroke:#F26B00;stroke-width:3;stroke-miterlimit:10;}
	.st3{fill:#F26B00;stroke:#F26B00;stroke-width:0.75;stroke-miterlimit:10;}
</style>
<desc>Created with Sketch.</desc>
<path id="Mask" class="st0" d="M15,1h43c7.7,0,14,6.3,14,14v43c0,7.7-6.3,14-14,14H15C7.3,72,1,65.7,1,58V15C1,7.3,7.3,1,15,1z"/>
<path class="st1" d="M53.5,19.5c1.9,1.9,2.8,4.2,2.9,7v19.9c-0.1,2.8-1,5.2-2.9,7c-1.9,1.9-4.2,2.8-7,2.9H26.5c-2.8-0.1-5.2-1-7-2.9
	c-1.9-1.9-2.8-4.2-2.9-7V26.5c0.1-2.8,1-5.2,2.9-7c1.9-1.9,4.2-2.8,7-2.9h19.9C49.3,16.6,51.6,17.6,53.5,19.5L53.5,19.5z M50.8,35.5
	c-0.6-0.6-1-1.4-1-2.3v-6.6c0-0.9-0.3-1.7-1-2.4c-0.6-0.6-1.4-0.9-2.4-1h-3.3v16.6L29.9,23.2h-3.3c-0.9,0-1.7,0.3-2.4,1
	c-0.6,0.6-0.9,1.4-1,2.4v6.6c0,0.9-0.4,1.7-1,2.3c-0.6,0.6-1.4,0.9-2.4,1c0.9,0,1.7,0.4,2.4,1c0.6,0.6,1,1.4,1,2.3v6.6
	c0,0.9,0.3,1.7,1,2.4c0.6,0.6,1.4,0.9,2.4,1h3.3V33.2l13.3,16.6h3.3c0.9,0,1.7-0.3,2.4-1c0.6-0.6,0.9-1.4,1-2.4v-6.6
	c0-0.9,0.4-1.7,1-2.3c0.6-0.6,1.4-0.9,2.4-1C52.2,36.5,51.4,36.1,50.8,35.5L50.8,35.5z"/>
<path class="st2" d="M18.4,25.9c8.3,0.2,16.5,0.3,24.8,0.5c0.3,0,2.1,0.1,3.3,1.6c1.1,1.3,1.1,2.9,1.1,3.3c-0.1,1.8-1.2,3.1-2.1,3.8
	c-0.6,0.5-1.4,0.8-2.3,0.8H30.5c-0.5,0-1,0.1-1.5,0.3c-2.2,1.1-3.7,3.1-3.8,5.1c0,1.5,0.7,2.7,0.9,3.1c1,1.6,2.6,2.2,3.4,2.5
	c0.3,0.1,0.7,0.1,1,0.1h22.6"/>
<circle class="st3" cx="16.2" cy="26.3" r="4.5"/>
<circle class="st3" cx="56.8" cy="46.7" r="4.5"/>
</svg>
