<?xml version="1.0" encoding="utf-8"?>
<!-- Generator: Adobe Illustrator 24.3.0, SVG Export Plug-In . SVG Version: 6.00 Build 0)  -->
<svg version="1.1" id="레이어_1" xmlns="http://www.w3.org/2000/svg" xmlns:xlink="http://www.w3.org/1999/xlink" x="0px"
	 y="0px" viewBox="0 0 73 73" style="enable-background:new 0 0 73 73;" xml:space="preserve">

	<title>mobile-applications/ionic</title>

	<style type="text/css">
	.st0{fill:#FFFFFF;stroke:#085EB5;stroke-width:2;}
	.st1{fill:#3880FF;}
</style>
<desc>Created with Sketch.</desc>
<g id="container" transform="translate(2.000000, 2.000000)">
	<path id="mask" class="st0" d="M13-1h43c7.7,0,14,6.3,14,14v43c0,7.7-6.3,14-14,14H13C5.3,70-1,63.7-1,56V13C-1,5.3,5.3-1,13-1z"/>
</g>
<g id="icon">
	<path id="Shape" class="st1" d="M36.5,27.3c-5.5,0-9.9,4.4-9.9,9.9s4.4,9.9,9.9,9.9s9.9-4.4,9.9-9.9C46.4,31.7,41.9,27.3,36.5,27.3
		z"/>
	<circle id="Oval" class="st1" cx="50.7" cy="23.6" r="4.5"/>
	<path id="Shape_1_" class="st1" d="M56.2,28.2l-0.2-0.4l-0.3,0.4C55,29,54.1,29.6,53.1,30l-0.3,0.1l0.1,0.3
		c0.9,2.2,1.4,4.5,1.4,6.8c0,9.8-8,17.8-17.8,17.8s-17.7-8-17.7-17.8s8-17.8,17.8-17.8c2.7,0,5.2,0.6,7.6,1.7l0.3,0.1l0.1-0.3
		c0.5-1,1.1-1.9,2-2.6l0.4-0.3l-0.4-0.2c-3.1-1.6-6.4-2.4-9.9-2.4c-12,0-21.7,9.8-21.7,21.7s9.8,21.7,21.7,21.7s21.7-9.8,21.7-21.7
		C58.2,34,57.5,31,56.2,28.2z"/>
</g>
</svg>
