<?xml version="1.0" encoding="utf-8"?>
<!-- Generator: Adobe Illustrator 24.3.0, SVG Export Plug-In . SVG Version: 6.00 Build 0)  -->
<svg version="1.1" id="레이어_1" xmlns="http://www.w3.org/2000/svg" xmlns:xlink="http://www.w3.org/1999/xlink" x="0px"
	 y="0px" viewBox="0 0 73 73" style="enable-background:new 0 0 73 73;" xml:space="preserve">
<style type="text/css">
	.st0{fill:#FFFFFF;stroke:#2D5744;stroke-width:2;}
	.st1{display:none;fill:#3C5AFD;}
	.st2{fill:#47848F;}
</style>
<desc>Created with Sketch.</desc>
<path id="Mask" class="st0" d="M15,1h43c7.7,0,14,6.3,14,14v43c0,7.7-6.3,14-14,14H15C7.3,72,1,65.7,1,58V15C1,7.3,7.3,1,15,1z"/>
<path class="st1" d="M53.5,19.5c1.9,1.9,2.8,4.2,2.9,7v19.9c-0.1,2.8-1,5.2-2.9,7c-1.9,1.9-4.2,2.8-7,2.9H26.5c-2.8-0.1-5.2-1-7-2.9
	c-1.9-1.9-2.8-4.2-2.9-7V26.5c0.1-2.8,1-5.2,2.9-7c1.9-1.9,4.2-2.8,7-2.9h19.9C49.3,16.6,51.6,17.6,53.5,19.5L53.5,19.5z M50.8,35.5
	c-0.6-0.6-1-1.4-1-2.3v-6.6c0-0.9-0.3-1.7-1-2.4c-0.6-0.6-1.4-0.9-2.4-1h-3.3v16.6L29.9,23.2h-3.3c-0.9,0-1.7,0.3-2.4,1
	c-0.6,0.6-0.9,1.4-1,2.4v6.6c0,0.9-0.4,1.7-1,2.3c-0.6,0.6-1.4,0.9-2.4,1c0.9,0,1.7,0.4,2.4,1c0.6,0.6,1,1.4,1,2.3v6.6
	c0,0.9,0.3,1.7,1,2.4c0.6,0.6,1.4,0.9,2.4,1h3.3V33.2l13.3,16.6h3.3c0.9,0,1.7-0.3,2.4-1c0.6-0.6,0.9-1.4,1-2.4v-6.6
	c0-0.9,0.4-1.7,1-2.3c0.6-0.6,1.4-0.9,2.4-1C52.2,36.5,51.4,36.1,50.8,35.5L50.8,35.5z"/>
<g>
	<path class="st2" d="M29.5,22.7c-6-1.1-10.7,0-12.6,3.3c-1.4,2.4-1,5.7,1,9.1c0.2,0.3,0.5,0.4,0.8,0.2c0.3-0.2,0.4-0.5,0.2-0.8
		c-1.8-3.1-2.1-5.9-1-7.9c1.6-2.7,5.8-3.7,11.3-2.7c0.3,0.1,0.7-0.2,0.7-0.5C30.1,23.1,29.8,22.7,29.5,22.7L29.5,22.7z M21,39.3
		c2.7,2.9,5.7,5.3,9.1,7.2c8.7,5,17.9,6.3,22.4,3.2c0.3-0.2,0.4-0.6,0.2-0.8c-0.2-0.3-0.6-0.4-0.8-0.2c-4.1,2.8-12.9,1.5-21.2-3.3
		c-3.3-1.9-6.3-4.2-8.8-7c-0.2-0.3-0.6-0.3-0.9,0C20.8,38.6,20.8,39,21,39.3L21,39.3L21,39.3z"/>
	<path class="st2" d="M51.1,38.5c3.9-4.6,5.3-9.3,3.4-12.5c-1.4-2.4-4.3-3.7-8.2-3.7c-0.3,0-0.6,0.3-0.6,0.6c0,0.3,0.3,0.6,0.6,0.6
		c3.5,0,6,1.1,7.1,3.1c1.6,2.7,0.3,6.8-3.3,11.1C50,38,50,38.4,50.3,38.6C50.5,38.8,50.9,38.8,51.1,38.5L51.1,38.5z M41.1,22.9
		c-3.8,0.9-7.5,2.3-10.9,4.3c-8.9,5.2-14.8,12.8-14,18.3c0,0.3,0.4,0.6,0.7,0.5c0.3,0,0.6-0.4,0.5-0.7l0,0
		c-0.7-4.9,4.8-12.1,13.3-17c3.3-1.9,6.8-3.4,10.6-4.2c0.3-0.1,0.5-0.4,0.5-0.7S41.4,22.8,41.1,22.9L41.1,22.9L41.1,22.9z"/>
	<path class="st2" d="M26.6,49.3c2.1,5.7,5.4,9.2,9.2,9.2c2.7,0,5.3-1.9,7.3-5.2c0.2-0.3,0.1-0.7-0.2-0.8c-0.3-0.2-0.7-0.1-0.8,0.2
		c-1.8,3-4,4.6-6.2,4.6c-3.1,0-6.1-3.1-8-8.4c-0.1-0.3-0.5-0.5-0.8-0.4C26.6,48.6,26.5,49,26.6,49.3L26.6,49.3L26.6,49.3z
		 M45.3,48.2c1.1-3.7,1.7-7.5,1.6-11.3c0-10.1-3.5-18.9-8.6-21.1c-0.3-0.1-0.7,0-0.8,0.3c-0.1,0.3,0,0.7,0.3,0.8l0,0
		c4.5,2,7.9,10.3,7.9,20c0,3.7-0.5,7.4-1.6,11c-0.1,0.3,0.1,0.7,0.4,0.8C44.8,48.7,45.2,48.5,45.3,48.2L45.3,48.2z M56.8,47.6
		c0-1.6-1.3-2.9-2.9-2.9c-1.6,0-2.9,1.3-2.9,2.9s1.3,2.9,2.9,2.9C55.5,50.5,56.8,49.2,56.8,47.6C56.8,47.6,56.8,47.6,56.8,47.6z
		 M55.6,47.6c0,0.9-0.8,1.7-1.7,1.7s-1.7-0.8-1.7-1.7c0-0.9,0.8-1.7,1.7-1.7l0,0C54.8,45.9,55.6,46.7,55.6,47.6z M17.6,50.5
		c1.6,0,2.9-1.3,2.9-2.9c0-1.6-1.3-2.9-2.9-2.9s-2.9,1.3-2.9,2.9C14.6,49.2,16,50.5,17.6,50.5L17.6,50.5z M17.6,49.3
		c-0.9,0-1.7-0.8-1.7-1.7c0-0.9,0.8-1.7,1.7-1.7s1.7,0.8,1.7,1.7l0,0C19.3,48.6,18.5,49.3,17.6,49.3z"/>
	<path class="st2" d="M35.7,18.7c1.6,0,2.9-1.3,2.9-2.9s-1.3-2.9-2.9-2.9s-2.9,1.3-2.9,2.9S34.1,18.7,35.7,18.7
		C35.7,18.7,35.7,18.7,35.7,18.7z M35.7,17.5c-0.9,0-1.7-0.8-1.7-1.7s0.8-1.7,1.7-1.7c0.9,0,1.7,0.8,1.7,1.7c0,0,0,0,0,0
		C37.4,16.7,36.7,17.5,35.7,17.5z M36.2,38.9c-1.1,0.3-2.3-0.5-2.5-1.6c-0.3-1.1,0.5-2.3,1.6-2.5c1.1-0.3,2.3,0.5,2.5,1.6
		c0,0,0,0,0,0C38,37.6,37.3,38.7,36.2,38.9z"/>
</g>
</svg>
